HIERARCHY
ROOT Hips
{
	OFFSET 0.000000 100.481300 0.000000
	CHANNELS 6 Xposition Yposition Zposition Xrotation Yrotation Zrotation
	JOINT Spine
	{
		OFFSET -0.279200 12.230698 -2.892100
		CHANNELS 3 Xrotation Yrotation Zrotation
		JOINT Spine1
		{
			OFFSET -0.325700 14.269203 -3.374200
			CHANNELS 3 Xrotation Yrotation Zrotation
			JOINT Spine2
			{
				OFFSET -0.372300 16.307602 -0.352600
				CHANNELS 3 Xrotation Yrotation Zrotation
				JOINT Neck
				{
					OFFSET -0.418800 17.814194 8.416900
					CHANNELS 3 Xrotation Yrotation Zrotation
					JOINT Head
					{
						OFFSET 0.000000 7.031097 3.806800
						CHANNELS 3 Xrotation Yrotation Zrotation
						JOINT HeadTop_End
						{
							OFFSET 0.000000 24.646606 12.978600
							CHANNELS 3 Xrotation Yrotation Zrotation
							End Site
							{
								OFFSET 0.000000 27.854965 0.000000
							}
						}
					}
				}
				JOINT LeftShoulder
				{
					OFFSET 16.952999 14.495407 -7.737500
					CHANNELS 3 Xrotation Yrotation Zrotation
					JOINT LeftArm
					{
						OFFSET 9.308998 -2.777710 0.208600
						CHANNELS 3 Xrotation Yrotation Zrotation
						JOINT LeftForeArm
						{
							OFFSET 29.972298 0.000000 0.000000
							CHANNELS 3 Xrotation Yrotation Zrotation
							JOINT LeftHand
							{
								OFFSET 26.026505 0.000000 0.000000
								CHANNELS 3 Xrotation Yrotation Zrotation
								JOINT LeftHandThumb1
								{
									OFFSET 12.240501 -7.147949 9.207150
									CHANNELS 3 Xrotation Yrotation Zrotation
									JOINT LeftHandThumb2
									{
										OFFSET 4.138618 -2.389435 2.389433
										CHANNELS 3 Xrotation Yrotation Zrotation
										JOINT LeftHandThumb3
										{
											OFFSET 2.726913 -1.574387 1.574386
											CHANNELS 3 Xrotation Yrotation Zrotation
											JOINT LeftHandThumb4
											{
												OFFSET 3.941010 -2.275345 2.275342
												CHANNELS 3 Xrotation Yrotation Zrotation
												End Site
												{
													OFFSET -0.005798 5.087799 0.009903
												}
											}
										}
									}
								}
								JOINT LeftHandIndex1
								{
									OFFSET 24.424698 -1.985611 5.953459
									CHANNELS 3 Xrotation Yrotation Zrotation
									JOINT LeftHandIndex2
									{
										OFFSET 6.426697 0.000000 0.000000
										CHANNELS 3 Xrotation Yrotation Zrotation
										JOINT LeftHandIndex3
										{
											OFFSET 5.337898 0.000000 0.000000
											CHANNELS 3 Xrotation Yrotation Zrotation
											JOINT LeftHandIndex4
											{
												OFFSET 4.409401 0.000000 0.000000
												CHANNELS 3 Xrotation Yrotation Zrotation
												End Site
												{
													OFFSET 0.000000 4.409363 0.014373
												}
											}
										}
									}
								}
								JOINT LeftHandMiddle1
								{
									OFFSET 23.810104 0.000000 0.000000
									CHANNELS 3 Xrotation Yrotation Zrotation
									JOINT LeftHandMiddle2
									{
										OFFSET 7.176498 0.000000 0.000000
										CHANNELS 3 Xrotation Yrotation Zrotation
										JOINT LeftHandMiddle3
										{
											OFFSET 6.774902 0.000000 0.000000
											CHANNELS 3 Xrotation Yrotation Zrotation
											JOINT LeftHandMiddle4
											{
												OFFSET 5.403328 0.000000 0.000000
												CHANNELS 3 Xrotation Yrotation Zrotation
												End Site
												{
													OFFSET -0.027702 5.403244 0.017414
												}
											}
										}
									}
								}
								JOINT LeftHandRing1
								{
									OFFSET 22.908401 -0.839279 -6.020567
									CHANNELS 3 Xrotation Yrotation Zrotation
									JOINT LeftHandRing2
									{
										OFFSET 6.337502 0.000000 0.000000
										CHANNELS 3 Xrotation Yrotation Zrotation
										JOINT LeftHandRing3
										{
											OFFSET 5.779297 0.000000 0.000000
											CHANNELS 3 Xrotation Yrotation Zrotation
											JOINT LeftHandRing4
											{
												OFFSET 4.965698 0.000000 0.000000
												CHANNELS 3 Xrotation Yrotation Zrotation
												End Site
												{
													OFFSET 0.000000 4.965668 0.016186
												}
											}
										}
									}
								}
								JOINT LeftHandPinky1
								{
									OFFSET 20.037003 -1.530319 -10.950146
									CHANNELS 3 Xrotation Yrotation Zrotation
									JOINT LeftHandPinky2
									{
										OFFSET 5.254700 0.000000 0.000000
										CHANNELS 3 Xrotation Yrotation Zrotation
										JOINT LeftHandPinky3
										{
											OFFSET 4.810204 0.000000 0.000000
											CHANNELS 3 Xrotation Yrotation Zrotation
											JOINT LeftHandPinky4
											{
												OFFSET 3.647202 0.000000 0.000000
												CHANNELS 3 Xrotation Yrotation Zrotation
												End Site
												{
													OFFSET 0.000000 3.647186 0.011889
												}
											}
										}
									}
								}
							}
						}
					}
				}
				JOINT RightShoulder
				{
					OFFSET -15.141001 14.495407 -7.737500
					CHANNELS 3 Xrotation Yrotation Zrotation
					JOINT RightArm
					{
						OFFSET -9.308998 -2.777710 0.208500
						CHANNELS 3 Xrotation Yrotation Zrotation
						JOINT RightForeArm
						{
							OFFSET -29.972300 0.000000 0.000000
							CHANNELS 3 Xrotation Yrotation Zrotation
							JOINT RightHand
							{
								OFFSET -26.026505 0.000000 0.000000
								CHANNELS 3 Xrotation Yrotation Zrotation
								JOINT RightHandThumb1
								{
									OFFSET -12.240601 -7.148026 9.207092
									CHANNELS 3 Xrotation Yrotation Zrotation
									JOINT RightHandThumb2
									{
										OFFSET -4.138618 -2.389435 2.389433
										CHANNELS 3 Xrotation Yrotation Zrotation
										JOINT RightHandThumb3
										{
											OFFSET -2.726974 -1.574417 1.574421
											CHANNELS 3 Xrotation Yrotation Zrotation
											JOINT RightHandThumb4
											{
												OFFSET -3.941010 -2.275345 2.275343
												CHANNELS 3 Xrotation Yrotation Zrotation
												End Site
												{
													OFFSET 0.005814 5.087799 0.009927
												}
											}
										}
									}
								}
								JOINT RightHandIndex1
								{
									OFFSET -24.424698 -1.985657 5.953444
									CHANNELS 3 Xrotation Yrotation Zrotation
									JOINT RightHandIndex2
									{
										OFFSET -6.426697 0.000000 0.000000
										CHANNELS 3 Xrotation Yrotation Zrotation
										JOINT RightHandIndex3
										{
											OFFSET -5.337898 0.000000 0.000000
											CHANNELS 3 Xrotation Yrotation Zrotation
											JOINT RightHandIndex4
											{
												OFFSET -4.409401 0.000000 0.000000
												CHANNELS 3 Xrotation Yrotation Zrotation
												End Site
												{
													OFFSET 0.000000 4.409363 0.014408
												}
											}
										}
									}
								}
								JOINT RightHandMiddle1
								{
									OFFSET -23.810097 0.000000 0.000000
									CHANNELS 3 Xrotation Yrotation Zrotation
									JOINT RightHandMiddle2
									{
										OFFSET -7.176498 0.000000 0.000000
										CHANNELS 3 Xrotation Yrotation Zrotation
										JOINT RightHandMiddle3
										{
											OFFSET -6.774902 0.000000 0.000000
											CHANNELS 3 Xrotation Yrotation Zrotation
											JOINT RightHandMiddle4
											{
												OFFSET -5.403328 0.000000 0.000000
												CHANNELS 3 Xrotation Yrotation Zrotation
												End Site
												{
													OFFSET 0.027702 5.403244 0.017457
												}
											}
										}
									}
								}
								JOINT RightHandRing1
								{
									OFFSET -22.908302 -0.839325 -6.020576
									CHANNELS 3 Xrotation Yrotation Zrotation
									JOINT RightHandRing2
									{
										OFFSET -6.337502 0.000000 0.000000
										CHANNELS 3 Xrotation Yrotation Zrotation
										JOINT RightHandRing3
										{
											OFFSET -5.779297 0.000000 0.000000
											CHANNELS 3 Xrotation Yrotation Zrotation
											JOINT RightHandRing4
											{
												OFFSET -4.965698 0.000000 0.000000
												CHANNELS 3 Xrotation Yrotation Zrotation
												End Site
												{
													OFFSET 0.000000 4.965668 0.016226
												}
											}
										}
									}
								}
								JOINT RightHandPinky1
								{
									OFFSET -20.037003 -1.530334 -10.950259
									CHANNELS 3 Xrotation Yrotation Zrotation
									JOINT RightHandPinky2
									{
										OFFSET -5.254700 0.000000 0.000000
										CHANNELS 3 Xrotation Yrotation Zrotation
										JOINT RightHandPinky3
										{
											OFFSET -4.810204 0.000000 0.000000
											CHANNELS 3 Xrotation Yrotation Zrotation
											JOINT RightHandPinky4
											{
												OFFSET -3.647202 0.000000 0.000000
												CHANNELS 3 Xrotation Yrotation Zrotation
												End Site
												{
													OFFSET 0.000000 3.647186 0.011917
												}
											}
										}
									}
								}
							}
						}
					}
				}
			}
		}
	}
	JOINT LeftUpLeg
	{
		OFFSET 15.427100 -6.655098 0.678600
		CHANNELS 3 Xrotation Yrotation Zrotation
		JOINT LeftLeg
		{
			OFFSET 4.081073 -39.591068 13.024000
			CHANNELS 3 Xrotation Yrotation Zrotation
			JOINT LeftFoot
			{
				OFFSET -4.081074 -37.707932 -15.979700
				CHANNELS 3 Xrotation Yrotation Zrotation
				JOINT LeftToeBase
				{
					OFFSET 5.346399 -15.068900 20.645000
					CHANNELS 3 Xrotation Yrotation Zrotation
					JOINT LeftToe_End
					{
						OFFSET 2.754700 0.931300 11.300900
						CHANNELS 3 Xrotation Yrotation Zrotation
						End Site
						{
							OFFSET 0.000000 11.669021 0.000000
						}
					}
				}
			}
		}
	}
	JOINT RightUpLeg
	{
		OFFSET -15.569500 -6.655098 0.678600
		CHANNELS 3 Xrotation Yrotation Zrotation
		JOINT RightLeg
		{
			OFFSET -4.081825 -39.591045 13.023800
			CHANNELS 3 Xrotation Yrotation Zrotation
			JOINT RightFoot
			{
				OFFSET 4.081824 -37.707954 -15.979600
				CHANNELS 3 Xrotation Yrotation Zrotation
				JOINT RightToeBase
				{
					OFFSET -5.346400 -15.068900 20.645000
					CHANNELS 3 Xrotation Yrotation Zrotation
					JOINT RightToe_End
					{
						OFFSET -2.754700 0.931300 11.300900
						CHANNELS 3 Xrotation Yrotation Zrotation
						End Site
						{
							OFFSET 0.000000 11.669021 0.000000
						}
					}
				}
			}
		}
	}
}
MOTION
Frames: 4
Frame Time: 0.033333
1.163417 94.426147 -0.711577 -0.737722 -7.773187 -1.728356 3.521022 1.766940 1.961316 0.922046 0.616419 1.035168 0.920109 0.631878 1.027470 -3.079346 0.496055 3.073819 -6.610652 3.616522 -1.171613 -0.000000 0.000000 0.000000 0.566724 -4.608051 -11.832148 -1.641925 -23.888095 -62.124177 0.000005 -10.824295 0.000007 4.746582 -12.974163 -5.738570 -6.116571 -3.608388 17.999258 16.166235 19.328100 6.185696 0.771575 -7.843256 20.050020 0.000001 0.000005 0.000000 0.159275 3.421548 -11.748479 0.185044 1.462271 -14.424274 0.000226 0.051177 -0.499310 0.000001 -0.000000 -0.000000 0.461068 5.247597 -9.253871 0.317499 1.904164 -18.930812 0.075919 0.941063 -9.223766 -0.000001 -0.000001 0.000001 1.012814 7.087959 -12.988535 0.173263 1.415669 -13.955029 0.092976 1.040638 -10.209886 0.000001 0.000000 0.000001 1.104679 9.313150 -8.806958 0.270635 1.761705 -17.465943 0.058349 0.825602 -8.083778 0.000002 -0.000001 -0.000001 -0.220054 10.973665 21.862368 -1.691470 9.577792 55.939000 -0.000005 1.287740 -0.000002 18.332752 -0.238891 -0.092461 -6.631783 5.568792 -17.423019 26.852464 -31.142230 16.403061 1.273379 20.118001 -35.588909 -0.000002 -0.000004 -0.000004 -0.183852 -0.765374 7.485670 0.413613 -1.920475 24.306483 0.161839 -1.218300 15.133000 0.000002 -0.000003 0.000001 -0.428928 -0.885658 13.787877 0.319913 -1.697908 21.338703 0.133878 -1.109802 13.757056 0.000000 0.000000 -0.000001 -0.649158 -0.822309 17.791391 0.128376 -1.087053 13.469554 0.115391 -1.031370 12.767437 -0.000000 0.000000 -0.000000 -1.253507 0.540130 19.882636 0.145867 -1.157639 14.362455 0.080302 -0.862025 10.643794 -0.000000 -0.000002 0.000002 -17.618319 11.735184 17.129981 16.359536 -2.698264 3.476379 0.346134 1.040318 -12.315759 1.740519 -0.000001 -0.000000 -0.000000 0.000000 0.000000 -4.854840 -7.066281 -3.439062 17.853093 -7.534527 -0.948712 -11.242067 -1.681695 6.822527 -0.010567 -0.000000 0.000001 0.000000 -0.000000 -0.000000 
1.103523 94.474556 -0.842811 -0.262246 -9.421243 -1.469654 3.367758 1.358879 2.449624 0.860605 0.476431 1.204704 0.858792 0.494633 1.198995 -3.133303 0.525286 3.082484 -7.392439 4.963421 -0.748802 -0.000000 -0.000000 -0.000000 0.590994 -4.937511 -11.517846 -1.571048 -25.368156 -63.054462 -0.000009 -10.136882 -0.000014 5.023120 -13.672592 -5.457551 -5.963218 -3.921496 17.580687 16.130052 19.052755 6.179909 0.768913 -8.055987 19.955441 0.000001 0.000001 0.000001 0.102890 3.129860 -11.153539 0.188611 1.476052 -14.563208 0.000479 0.075381 -0.735666 0.000002 0.000001 0.000001 0.448466 5.220935 -9.016425 0.325793 1.928193 -19.179169 0.085126 0.996069 -9.768165 0.000004 -0.000001 -0.000001 1.049862 7.245578 -12.983035 0.190966 1.485136 -14.654873 0.096245 1.058637 -10.388486 -0.000003 -0.000000 0.000002 1.169541 9.699517 -9.196279 0.301179 1.855920 -18.433386 0.077101 0.948336 -9.295807 -0.000005 -0.000003 -0.000001 -0.223131 10.977134 21.738240 -2.297144 9.480239 55.565979 0.000001 1.740006 -0.000002 17.044532 -0.188106 -0.097549 -6.444029 5.733230 -17.066589 26.794429 -30.908771 16.568654 1.326184 19.492648 -35.628118 -0.000000 -0.000002 0.000004 -0.174042 -0.722736 7.593617 0.424032 -1.943357 24.615302 0.171416 -1.253146 15.576747 -0.000000 -0.000001 -0.000004 -0.422861 -0.948922 13.992280 0.337355 -1.741874 21.920029 0.142294 -1.143620 14.184918 -0.000002 0.000003 -0.000001 -0.616893 -0.955357 17.977995 0.139477 -1.132396 14.042696 0.123474 -1.066379 13.208648 -0.000001 0.000001 0.000001 -1.462849 0.282901 20.055759 0.156498 -1.198394 14.879851 0.087029 -0.897051 11.081749 0.000003 0.000001 0.000002 -17.212838 11.755825 17.405141 16.032163 -1.156264 3.362308 0.229106 1.233404 -12.801885 1.742525 -0.000002 0.000004 0.000000 -0.000000 -0.000000 -5.989795 -7.015213 -3.511364 18.035601 -7.176502 -0.933768 -10.898688 -1.463434 6.476173 -0.000020 0.000007 0.000000 -0.000000 -0.000000 -0.000000 
1.057326 94.539169 -0.987687 0.234436 -11.502601 -1.175956 3.249260 1.001716 3.004053 0.812058 0.353520 1.398296 0.810488 0.374515 1.394195 -3.197971 0.557523 3.091952 -8.248830 6.535549 -0.373574 0.000000 0.000000 -0.000000 0.674058 -5.279737 -10.888240 -1.998263 -27.067630 -64.515283 0.000006 -8.949269 0.000003 5.207057 -14.670365 -5.393493 -5.547316 -4.777826 16.456979 16.088031 18.382409 6.112020 0.743666 -8.687965 19.763270 0.000003 -0.000003 0.000001 -0.021809 2.332755 -9.523778 0.199451 1.517162 -14.978499 0.001696 0.141057 -1.376595 0.000000 -0.000002 0.000001 0.420618 5.166568 -8.456179 0.348715 1.992806 -19.848911 0.111850 1.140488 -11.201934 -0.000001 0.000003 0.000001 1.144659 7.635419 -13.012598 0.243198 1.672031 -16.549921 0.105912 1.110042 -10.899139 0.000001 0.000002 0.000002 1.354307 10.676425 -10.220471 0.382638 2.084365 -20.802892 0.140202 1.275300 -12.546751 -0.000002 -0.000001 -0.000001 -0.243931 11.092450 21.409259 -2.949070 9.243878 55.200441 -0.000004 2.295609 0.000010 15.579670 -0.177548 -0.271438 -5.922010 6.197270 -16.086907 26.872524 -30.546300 17.244824 1.332784 17.751136 -35.664014 0.000001 -0.000001 -0.000000 -0.155104 -0.602928 8.078845 0.470206 -2.041068 25.943451 0.199029 -1.348276 16.793436 0.000001 -0.000001 -0.000001 -0.400265 -1.140796 14.572168 0.387650 -1.861930 23.519389 0.167463 -1.238923 15.395547 0.000000 0.000001 0.000001 -0.550348 -1.245313 18.527383 0.172852 -1.258298 15.642426 0.146966 -1.161939 14.417023 0.000000 0.000001 0.000001 -2.027658 -0.464951 20.576449 0.190858 -1.320917 16.442623 0.107106 -0.994098 12.298626 -0.000000 -0.000002 -0.000001 -16.595249 11.853672 17.771958 15.663968 0.724569 3.195305 0.052855 1.488899 -13.365751 1.752339 0.000001 -0.000002 -0.000000 -0.000000 -0.000000 -7.249408 -7.038003 -3.631383 18.181924 -6.746464 -0.839378 -10.439503 -0.866869 6.048531 -0.000090 0.000000 -0.000001 0.000000 0.000000 0.000000 
1.058704 94.586975 -1.139277 0.783873 -14.039578 -0.861356 3.176974 0.671498 3.649008 0.787252 0.238735 1.619114 0.785915 0.261862 1.616280 -3.282336 0.609977 3.096001 -9.150232 8.474912 -0.140508 0.000000 -0.000000 0.000000 0.805988 -5.605990 -9.981470 -2.847435 -28.762125 -66.363552 -0.000000 -7.569823 -0.000011 5.340993 -15.851296 -5.553321 -4.933028 -6.061812 14.827584 16.037520 17.411334 5.999829 0.696412 -9.639737 19.499377 0.000000 0.000001 -0.000004 -0.129910 1.144632 -7.116407 0.216308 1.578754 -15.601906 0.004815 0.238058 -2.323893 -0.000002 -0.000000 0.000000 0.380762 5.087066 -7.631755 0.384137 2.088258 -20.843724 0.157792 1.351920 -13.314393 0.000001 0.000001 0.000000 1.290379 8.223040 -13.075981 0.331395 1.944181 -19.344595 0.121137 1.186467 -11.659856 -0.000002 0.000000 0.000002 1.687089 12.093267 -11.737888 0.520485 2.415944 -24.312642 0.266809 1.749495 -17.340950 -0.000000 0.000001 -0.000005 -0.267165 11.232214 20.875519 -3.954521 8.836005 54.895945 0.000001 2.672592 -0.000001 13.828504 -0.189899 -0.720675 -5.123745 6.926196 -14.620206 27.068695 -30.085535 18.341018 1.287520 15.120099 -35.685710 -0.000002 -0.000002 0.000001 -0.135034 -0.432224 8.949792 0.556294 -2.209155 28.264689 0.244856 -1.491680 18.642520 0.000001 0.000000 -0.000003 -0.359765 -1.428273 15.441593 0.470384 -2.041430 25.948297 0.209799 -1.383468 17.245492 0.000001 -0.000001 0.000001 -0.445393 -1.668945 19.389594 0.230744 -1.449191 18.092642 0.186653 -1.306581 16.259209 -0.000001 -0.000001 -0.000001 -2.859337 -1.621828 21.347517 0.250503 -1.508320 18.858373 0.142124 -1.142928 14.176227 0.000002 -0.000000 -0.000002 -15.840686 12.006992 18.263837 15.394898 3.004410 2.966205 -0.236769 1.756459 -14.042070 1.760490 0.000002 0.000004 -0.000000 -0.000000 -0.000000 -8.670650 -7.164681 -3.839183 18.329689 -6.346518 -0.602504 -9.886256 0.282999 5.568630 0.000013 0.000002 0.000000 -0.000000 0.000002 0.000000 
